<svg id="visual" viewBox="0 0 960 540" width="960" height="540" xmlns="http://www.w3.org/2000/svg" xmlns:xlink="http://www.w3.org/1999/xlink" version="1.1"><rect x="0" y="0" width="960" height="540" fill="#001220"></rect><path d="M0 121L22.8 127C45.7 133 91.3 145 137 144.3C182.7 143.7 228.3 130.3 274 119C319.7 107.7 365.3 98.3 411.2 101.3C457 104.3 503 119.7 548.8 128.2C594.7 136.7 640.3 138.3 686 136.5C731.7 134.7 777.3 129.3 823 131.7C868.7 134 914.3 144 937.2 149L960 154L960 0L937.2 0C914.3 0 868.7 0 823 0C777.3 0 731.7 0 686 0C640.3 0 594.7 0 548.8 0C503 0 457 0 411.2 0C365.3 0 319.7 0 274 0C228.3 0 182.7 0 137 0C91.3 0 45.7 0 22.8 0L0 0Z" fill="#750037"></path><path d="M0 148L22.8 135.7C45.7 123.3 91.3 98.7 137 85.7C182.7 72.7 228.3 71.3 274 80.2C319.7 89 365.3 108 411.2 122.2C457 136.3 503 145.7 548.8 139.3C594.7 133 640.3 111 686 99.2C731.7 87.3 777.3 85.7 823 96.3C868.7 107 914.3 130 937.2 141.5L960 153L960 0L937.2 0C914.3 0 868.7 0 823 0C777.3 0 731.7 0 686 0C640.3 0 594.7 0 548.8 0C503 0 457 0 411.2 0C365.3 0 319.7 0 274 0C228.3 0 182.7 0 137 0C91.3 0 45.7 0 22.8 0L0 0Z" fill="#86073d"></path><path d="M0 83L22.8 89.2C45.7 95.3 91.3 107.7 137 114.3C182.7 121 228.3 122 274 112C319.7 102 365.3 81 411.2 82.3C457 83.7 503 107.3 548.8 116.5C594.7 125.7 640.3 120.3 686 106.8C731.7 93.3 777.3 71.7 823 62C868.7 52.3 914.3 54.7 937.2 55.8L960 57L960 0L937.2 0C914.3 0 868.7 0 823 0C777.3 0 731.7 0 686 0C640.3 0 594.7 0 548.8 0C503 0 457 0 411.2 0C365.3 0 319.7 0 274 0C228.3 0 182.7 0 137 0C91.3 0 45.7 0 22.8 0L0 0Z" fill="#981142"></path><path d="M0 44L22.8 49.8C45.7 55.7 91.3 67.3 137 70.7C182.7 74 228.3 69 274 72.2C319.7 75.3 365.3 86.7 411.2 85.7C457 84.7 503 71.3 548.8 67.3C594.7 63.3 640.3 68.7 686 67.5C731.7 66.3 777.3 58.7 823 52.2C868.7 45.7 914.3 40.3 937.2 37.7L960 35L960 0L937.2 0C914.3 0 868.7 0 823 0C777.3 0 731.7 0 686 0C640.3 0 594.7 0 548.8 0C503 0 457 0 411.2 0C365.3 0 319.7 0 274 0C228.3 0 182.7 0 137 0C91.3 0 45.7 0 22.8 0L0 0Z" fill="#aa1a46"></path><path d="M0 55L22.8 50.5C45.7 46 91.3 37 137 29C182.7 21 228.3 14 274 18C319.7 22 365.3 37 411.2 44.7C457 52.3 503 52.7 548.8 50.8C594.7 49 640.3 45 686 40C731.7 35 777.3 29 823 27.8C868.7 26.7 914.3 30.3 937.2 32.2L960 34L960 0L937.2 0C914.3 0 868.7 0 823 0C777.3 0 731.7 0 686 0C640.3 0 594.7 0 548.8 0C503 0 457 0 411.2 0C365.3 0 319.7 0 274 0C228.3 0 182.7 0 137 0C91.3 0 45.7 0 22.8 0L0 0Z" fill="#bc244a"></path></svg>