<svg id="visual" viewBox="0 0 960 540" width="960" height="540" xmlns="http://www.w3.org/2000/svg" xmlns:xlink="http://www.w3.org/1999/xlink" version="1.1"><rect x="0" y="0" width="960" height="540" fill="#001220"></rect><path d="M0 465L16 424.7C32 384.3 64 303.7 96 248.8C128 194 160 165 192 150.3C224 135.7 256 135.3 288 177.8C320 220.3 352 305.7 384 339.7C416 373.7 448 356.3 480 302.8C512 249.3 544 159.7 576 170.7C608 181.7 640 293.3 672 294.8C704 296.3 736 187.7 768 169.7C800 151.7 832 224.3 864 290.2C896 356 928 415 944 444.5L960 474L960 0L944 0C928 0 896 0 864 0C832 0 800 0 768 0C736 0 704 0 672 0C640 0 608 0 576 0C544 0 512 0 480 0C448 0 416 0 384 0C352 0 320 0 288 0C256 0 224 0 192 0C160 0 128 0 96 0C64 0 32 0 16 0L0 0Z" fill="#750037"></path><path d="M0 322L16 290.7C32 259.3 64 196.7 96 174.7C128 152.7 160 171.3 192 183.2C224 195 256 200 288 228.5C320 257 352 309 384 335C416 361 448 361 480 355.3C512 349.7 544 338.3 576 349.2C608 360 640 393 672 401.7C704 410.3 736 394.7 768 368.3C800 342 832 305 864 301.8C896 298.7 928 329.3 944 344.7L960 360L960 0L944 0C928 0 896 0 864 0C832 0 800 0 768 0C736 0 704 0 672 0C640 0 608 0 576 0C544 0 512 0 480 0C448 0 416 0 384 0C352 0 320 0 288 0C256 0 224 0 192 0C160 0 128 0 96 0C64 0 32 0 16 0L0 0Z" fill="#7e103d"></path><path d="M0 121L16 161.3C32 201.7 64 282.3 96 284.5C128 286.7 160 210.3 192 167.2C224 124 256 114 288 104.5C320 95 352 86 384 77.8C416 69.7 448 62.3 480 98.8C512 135.3 544 215.7 576 266.2C608 316.7 640 337.3 672 340.3C704 343.3 736 328.7 768 315.8C800 303 832 292 864 290.8C896 289.7 928 298.3 944 302.7L960 307L960 0L944 0C928 0 896 0 864 0C832 0 800 0 768 0C736 0 704 0 672 0C640 0 608 0 576 0C544 0 512 0 480 0C448 0 416 0 384 0C352 0 320 0 288 0C256 0 224 0 192 0C160 0 128 0 96 0C64 0 32 0 16 0L0 0Z" fill="#881c42"></path><path d="M0 277L16 261.5C32 246 64 215 96 216.5C128 218 160 252 192 241.8C224 231.7 256 177.3 288 153.7C320 130 352 137 384 159C416 181 448 218 480 234C512 250 544 245 576 209.7C608 174.3 640 108.7 672 105.5C704 102.3 736 161.7 768 199.3C800 237 832 253 864 266.2C896 279.3 928 289.7 944 294.8L960 300L960 0L944 0C928 0 896 0 864 0C832 0 800 0 768 0C736 0 704 0 672 0C640 0 608 0 576 0C544 0 512 0 480 0C448 0 416 0 384 0C352 0 320 0 288 0C256 0 224 0 192 0C160 0 128 0 96 0C64 0 32 0 16 0L0 0Z" fill="#912748"></path><path d="M0 211L16 206C32 201 64 191 96 158.8C128 126.7 160 72.3 192 57C224 41.7 256 65.3 288 79.7C320 94 352 99 384 115.2C416 131.3 448 158.7 480 182.2C512 205.7 544 225.3 576 236.3C608 247.3 640 249.7 672 224.8C704 200 736 148 768 143.2C800 138.3 832 180.7 864 180.5C896 180.3 928 137.7 944 116.3L960 95L960 0L944 0C928 0 896 0 864 0C832 0 800 0 768 0C736 0 704 0 672 0C640 0 608 0 576 0C544 0 512 0 480 0C448 0 416 0 384 0C352 0 320 0 288 0C256 0 224 0 192 0C160 0 128 0 96 0C64 0 32 0 16 0L0 0Z" fill="#9b314e"></path><path d="M0 126L16 112C32 98 64 70 96 69.5C128 69 160 96 192 93.2C224 90.3 256 57.7 288 44.5C320 31.3 352 37.7 384 37.5C416 37.3 448 30.7 480 37.2C512 43.7 544 63.3 576 61.2C608 59 640 35 672 38C704 41 736 71 768 93.2C800 115.3 832 129.7 864 131.2C896 132.7 928 121.3 944 115.7L960 110L960 0L944 0C928 0 896 0 864 0C832 0 800 0 768 0C736 0 704 0 672 0C640 0 608 0 576 0C544 0 512 0 480 0C448 0 416 0 384 0C352 0 320 0 288 0C256 0 224 0 192 0C160 0 128 0 96 0C64 0 32 0 16 0L0 0Z" fill="#a43b54"></path><path d="M0 109L16 92.5C32 76 64 43 96 44.8C128 46.7 160 83.3 192 85.2C224 87 256 54 288 53.8C320 53.7 352 86.3 384 100.2C416 114 448 109 480 94.7C512 80.3 544 56.7 576 42.2C608 27.7 640 22.3 672 35.3C704 48.3 736 79.7 768 86.5C800 93.3 832 75.7 864 68.3C896 61 928 64 944 65.5L960 67L960 0L944 0C928 0 896 0 864 0C832 0 800 0 768 0C736 0 704 0 672 0C640 0 608 0 576 0C544 0 512 0 480 0C448 0 416 0 384 0C352 0 320 0 288 0C256 0 224 0 192 0C160 0 128 0 96 0C64 0 32 0 16 0L0 0Z" fill="#ae445a"></path></svg>