<svg id="visual" viewBox="0 0 900 600" width="900" height="600" xmlns="http://www.w3.org/2000/svg" xmlns:xlink="http://www.w3.org/1999/xlink" version="1.1"><rect x="0" y="0" width="900" height="600" fill="#001220"></rect><path d="M0 204L21.5 201.3C43 198.7 86 193.3 128.8 188.2C171.7 183 214.3 178 257.2 176C300 174 343 175 385.8 184.5C428.7 194 471.3 212 514.2 212C557 212 600 194 642.8 181.8C685.7 169.7 728.3 163.3 771.2 164.3C814 165.3 857 173.7 878.5 177.8L900 182L900 0L878.5 0C857 0 814 0 771.2 0C728.3 0 685.7 0 642.8 0C600 0 557 0 514.2 0C471.3 0 428.7 0 385.8 0C343 0 300 0 257.2 0C214.3 0 171.7 0 128.8 0C86 0 43 0 21.5 0L0 0Z" fill="#fa7268"></path><path d="M0 160L21.5 162.3C43 164.7 86 169.3 128.8 170.8C171.7 172.3 214.3 170.7 257.2 169.3C300 168 343 167 385.8 161C428.7 155 471.3 144 514.2 148.8C557 153.7 600 174.3 642.8 183.7C685.7 193 728.3 191 771.2 178.2C814 165.3 857 141.7 878.5 129.8L900 118L900 0L878.5 0C857 0 814 0 771.2 0C728.3 0 685.7 0 642.8 0C600 0 557 0 514.2 0C471.3 0 428.7 0 385.8 0C343 0 300 0 257.2 0C214.3 0 171.7 0 128.8 0C86 0 43 0 21.5 0L0 0Z" fill="#ef5f67"></path><path d="M0 113L21.5 120.7C43 128.3 86 143.7 128.8 142.8C171.7 142 214.3 125 257.2 113.2C300 101.3 343 94.7 385.8 94.3C428.7 94 471.3 100 514.2 100.3C557 100.7 600 95.3 642.8 96.5C685.7 97.7 728.3 105.3 771.2 112C814 118.7 857 124.3 878.5 127.2L900 130L900 0L878.5 0C857 0 814 0 771.2 0C728.3 0 685.7 0 642.8 0C600 0 557 0 514.2 0C471.3 0 428.7 0 385.8 0C343 0 300 0 257.2 0C214.3 0 171.7 0 128.8 0C86 0 43 0 21.5 0L0 0Z" fill="#e34c67"></path><path d="M0 64L21.5 71.8C43 79.7 86 95.3 128.8 103.2C171.7 111 214.3 111 257.2 103.7C300 96.3 343 81.7 385.8 75C428.7 68.3 471.3 69.7 514.2 72.8C557 76 600 81 642.8 88C685.7 95 728.3 104 771.2 99.8C814 95.7 857 78.3 878.5 69.7L900 61L900 0L878.5 0C857 0 814 0 771.2 0C728.3 0 685.7 0 642.8 0C600 0 557 0 514.2 0C471.3 0 428.7 0 385.8 0C343 0 300 0 257.2 0C214.3 0 171.7 0 128.8 0C86 0 43 0 21.5 0L0 0Z" fill="#d53867"></path><path d="M0 62L21.5 57.7C43 53.3 86 44.7 128.8 43.8C171.7 43 214.3 50 257.2 54.2C300 58.3 343 59.7 385.8 61.3C428.7 63 471.3 65 514.2 64.7C557 64.3 600 61.7 642.8 54.8C685.7 48 728.3 37 771.2 32.7C814 28.3 857 30.7 878.5 31.8L900 33L900 0L878.5 0C857 0 814 0 771.2 0C728.3 0 685.7 0 642.8 0C600 0 557 0 514.2 0C471.3 0 428.7 0 385.8 0C343 0 300 0 257.2 0C214.3 0 171.7 0 128.8 0C86 0 43 0 21.5 0L0 0Z" fill="#c62368"></path></svg>